<svg width="13" height="13" viewBox="0 0 13 13" fill="none" xmlns="http://www.w3.org/2000/svg">
<path fill-rule="evenodd" clip-rule="evenodd" d="M11.9571 0.293031C12.1446 0.480558 12.2499 0.734866 12.2499 1.00003C12.2499 1.26519 12.1446 1.5195 11.9571 1.70703L6.95708 6.70703C6.76955 6.8945 6.51525 6.99982 6.25008 6.99982C5.98492 6.99982 5.73061 6.8945 5.54308 6.70703L0.543081 1.70703C0.360923 1.51843 0.260128 1.26583 0.262407 1.00363C0.264685 0.741432 0.369855 0.49062 0.555263 0.305212C0.740671 0.119804 0.991483 0.0146347 1.25368 0.0123563C1.51588 0.0100779 1.76848 0.110873 1.95708 0.293031L6.25008 4.58603L10.5431 0.293031C10.7306 0.10556 10.9849 0.000244141 11.2501 0.000244141C11.5152 0.000244141 11.7696 0.10556 11.9571 0.293031ZM11.9571 6.29303C12.1446 6.48056 12.2499 6.73487 12.2499 7.00003C12.2499 7.26519 12.1446 7.5195 11.9571 7.70703L6.95708 12.707C6.76955 12.8945 6.51525 12.9998 6.25008 12.9998C5.98492 12.9998 5.73061 12.8945 5.54308 12.707L0.543081 7.70703C0.447571 7.61478 0.371389 7.50444 0.31898 7.38243C0.266571 7.26043 0.238985 7.12921 0.237831 6.99643C0.236677 6.86365 0.261978 6.73197 0.312259 6.60908C0.36254 6.48618 0.436793 6.37453 0.530686 6.28064C0.624579 6.18674 0.736231 6.11249 0.859127 6.06221C0.982023 6.01193 1.1137 5.98663 1.24648 5.98778C1.37926 5.98893 1.51048 6.01652 1.63249 6.06893C1.75449 6.12134 1.86483 6.19752 1.95708 6.29303L6.25008 10.586L10.5431 6.29303C10.7306 6.10556 10.9849 6.00024 11.2501 6.00024C11.5152 6.00024 11.7696 6.10556 11.9571 6.29303V6.29303Z" fill="#47D16C"/>
</svg>
