<svg width="17" height="16" viewBox="0 0 17 16" fill="none" xmlns="http://www.w3.org/2000/svg">
<path fill-rule="evenodd" clip-rule="evenodd" d="M16.25 8C16.25 10.1217 15.4071 12.1566 13.9069 13.6569C12.4066 15.1571 10.3717 16 8.25 16C6.12827 16 4.09344 15.1571 2.59315 13.6569C1.09285 12.1566 0.25 10.1217 0.25 8C0.25 5.87827 1.09285 3.84344 2.59315 2.34315C4.09344 0.842855 6.12827 0 8.25 0C10.3717 0 12.4066 0.842855 13.9069 2.34315C15.4071 3.84344 16.25 5.87827 16.25 8ZM8.25 5C8.0743 4.99983 7.90165 5.04595 7.74945 5.13373C7.59724 5.22151 7.47085 5.34784 7.383 5.5C7.31957 5.61788 7.23311 5.72182 7.12876 5.80566C7.02441 5.8895 6.90429 5.95154 6.77552 5.9881C6.64675 6.02466 6.51194 6.03499 6.37911 6.01849C6.24627 6.00198 6.11809 5.95897 6.00218 5.89201C5.88628 5.82505 5.78499 5.7355 5.70433 5.62867C5.62367 5.52184 5.56529 5.3999 5.53263 5.27008C5.49997 5.14027 5.49371 5.00522 5.51421 4.87294C5.53472 4.74065 5.58157 4.61384 5.652 4.5C5.98222 3.92811 6.49191 3.48116 7.10203 3.22846C7.71214 2.97576 8.38859 2.93144 9.02647 3.10236C9.66434 3.27328 10.228 3.64989 10.63 4.1738C11.032 4.6977 11.25 5.33962 11.25 6C11.2502 6.62062 11.0579 7.22603 10.6998 7.73285C10.3416 8.23968 9.83508 8.62299 9.25 8.83V9C9.25 9.26522 9.14464 9.51957 8.95711 9.70711C8.76957 9.89464 8.51522 10 8.25 10C7.98478 10 7.73043 9.89464 7.54289 9.70711C7.35536 9.51957 7.25 9.26522 7.25 9V8C7.25 7.73478 7.35536 7.48043 7.54289 7.29289C7.73043 7.10536 7.98478 7 8.25 7C8.51522 7 8.76957 6.89464 8.95711 6.70711C9.14464 6.51957 9.25 6.26522 9.25 6C9.25 5.73478 9.14464 5.48043 8.95711 5.29289C8.76957 5.10536 8.51522 5 8.25 5ZM8.25 13C8.51522 13 8.76957 12.8946 8.95711 12.7071C9.14464 12.5196 9.25 12.2652 9.25 12C9.25 11.7348 9.14464 11.4804 8.95711 11.2929C8.76957 11.1054 8.51522 11 8.25 11C7.98478 11 7.73043 11.1054 7.54289 11.2929C7.35536 11.4804 7.25 11.7348 7.25 12C7.25 12.2652 7.35536 12.5196 7.54289 12.7071C7.73043 12.8946 7.98478 13 8.25 13Z" fill="#6E7C87"/>
</svg>
