<svg width="11" height="16" viewBox="0 0 11 16" fill="none" xmlns="http://www.w3.org/2000/svg">
<path fill-rule="evenodd" clip-rule="evenodd" d="M0.793031 5.707C0.60556 5.51947 0.500244 5.26516 0.500244 5C0.500244 4.73484 0.60556 4.48053 0.793031 4.293L4.79303 0.293C4.98056 0.105529 5.23487 0.000213623 5.50003 0.000213623C5.76519 0.000213623 6.0195 0.105529 6.20703 0.293L10.207 4.293C10.3892 4.4816 10.49 4.7342 10.4877 4.9964C10.4854 5.2586 10.3803 5.50941 10.1948 5.69482C10.0094 5.88023 9.75863 5.9854 9.49643 5.98767C9.23423 5.98995 8.98163 5.88916 8.79303 5.707L6.50003 3.414V15C6.50003 15.2652 6.39467 15.5196 6.20714 15.7071C6.0196 15.8946 5.76525 16 5.50003 16C5.23481 16 4.98046 15.8946 4.79292 15.7071C4.60539 15.5196 4.50003 15.2652 4.50003 15V3.414L2.20703 5.707C2.0195 5.89447 1.76519 5.99979 1.50003 5.99979C1.23487 5.99979 0.980558 5.89447 0.793031 5.707Z" fill="#F76659"/>
</svg>
