<svg width="13" height="13" viewBox="0 0 13 13" fill="none" xmlns="http://www.w3.org/2000/svg">
<path fill-rule="evenodd" clip-rule="evenodd" d="M0.543031 12.707C0.35556 12.5195 0.250244 12.2652 0.250244 12C0.250244 11.7349 0.35556 11.4806 0.543031 11.293L5.54303 6.29303C5.73056 6.10556 5.98487 6.00024 6.25003 6.00024C6.51519 6.00024 6.7695 6.10556 6.95703 6.29303L11.957 11.293C12.1392 11.4816 12.24 11.7342 12.2377 11.9964C12.2354 12.2586 12.1303 12.5094 11.9448 12.6948C11.7594 12.8803 11.5086 12.9854 11.2464 12.9877C10.9842 12.99 10.7316 12.8892 10.543 12.707L6.25003 8.41403L1.95703 12.707C1.7695 12.8945 1.51519 12.9998 1.25003 12.9998C0.984866 12.9998 0.730558 12.8945 0.543031 12.707ZM0.543031 6.70703C0.35556 6.5195 0.250244 6.26519 0.250244 6.00003C0.250244 5.73487 0.35556 5.48056 0.543031 5.29303L5.54303 0.293031C5.73056 0.105559 5.98487 0.000244141 6.25003 0.000244141C6.51519 0.000244141 6.7695 0.105559 6.95703 0.293031L11.957 5.29303C12.1392 5.48163 12.24 5.73423 12.2377 5.99643C12.2354 6.25863 12.1303 6.50944 11.9448 6.69485C11.7594 6.88026 11.5086 6.98543 11.2464 6.9877C10.9842 6.98998 10.7316 6.88919 10.543 6.70703L6.25003 2.41403L1.95703 6.70703C1.7695 6.8945 1.51519 6.99982 1.25003 6.99982C0.984866 6.99982 0.730558 6.8945 0.543031 6.70703Z" fill="#F76659"/>
</svg>
